solid Exported from Blender-2.71 (sub 0)
facet normal -0.269330 -0.484401 -0.832356
outer loop
vertex -0.192835 -0.113153 -0.067299
vertex -0.186536 -0.140386 -0.053488
vertex -0.201538 -0.120329 -0.060306
endloop
endfacet
facet normal -0.590690 -0.618139 -0.518642
outer loop
vertex -0.201538 -0.120329 -0.060306
vertex -0.186536 -0.140386 -0.053488
vertex -0.196287 -0.142108 -0.040330
endloop
endfacet
facet normal 0.170133 0.480030 -0.860596
outer loop
vertex -0.197596 0.113036 -0.061237
vertex -0.190629 0.147372 -0.040707
vertex 0.228904 0.056294 -0.008571
endloop
endfacet
facet normal 0.175369 0.579356 -0.795985
outer loop
vertex 0.228904 0.056294 -0.008571
vertex 0.117397 -0.001876 -0.075477
vertex -0.197596 0.113036 -0.061237
endloop
endfacet
facet normal 0.254419 0.910410 0.326226
outer loop
vertex 0.224715 0.033242 0.106837
vertex 0.237131 0.052613 0.043095
vertex 0.016555 0.122870 0.019050
endloop
endfacet
facet normal 0.304630 -0.951339 -0.046417
outer loop
vertex 0.237036 -0.054124 0.040146
vertex 0.016531 -0.123419 0.013223
vertex 0.228523 -0.054455 -0.008948
endloop
endfacet
facet normal -0.077133 0.058857 0.995282
outer loop
vertex 0.193422 0.015768 0.138350
vertex 0.118973 0.025000 0.132034
vertex 0.121429 -0.029133 0.135426
endloop
endfacet
facet normal -0.128099 0.141464 0.981620
outer loop
vertex 0.121429 -0.029133 0.135426
vertex 0.187151 -0.017611 0.142342
vertex 0.193422 0.015768 0.138350
endloop
endfacet
facet normal 0.980490 0.016155 0.195902
outer loop
vertex 0.237131 0.052613 0.043095
vertex 0.224715 0.033242 0.106837
vertex 0.229831 -0.043064 0.087525
endloop
endfacet
facet normal 0.988442 -0.005066 0.151512
outer loop
vertex 0.229831 -0.043064 0.087525
vertex 0.237036 -0.054124 0.040146
vertex 0.237131 0.052613 0.043095
endloop
endfacet
facet normal -0.123623 -0.970347 0.207712
outer loop
vertex 0.229831 -0.043064 0.087525
vertex 0.214019 -0.033563 0.122498
vertex 0.237036 -0.054124 0.040146
endloop
endfacet
facet normal 0.101087 -0.993353 -0.055054
outer loop
vertex 0.016531 -0.123419 0.013223
vertex -0.196287 -0.142108 -0.040330
vertex -0.186536 -0.140386 -0.053488
endloop
endfacet
facet normal 0.226997 -0.850381 -0.474684
outer loop
vertex 0.228523 -0.054455 -0.008948
vertex 0.016531 -0.123419 0.013223
vertex -0.186536 -0.140386 -0.053488
endloop
endfacet
facet normal 0.040431 -0.872166 0.487537
outer loop
vertex 0.121429 -0.029133 0.135426
vertex -0.202259 -0.121690 -0.003309
vertex -0.196287 -0.142108 -0.040330
endloop
endfacet
facet normal -0.100901 -0.743931 0.660595
outer loop
vertex -0.196287 -0.142108 -0.040330
vertex 0.016531 -0.123419 0.013223
vertex 0.121429 -0.029133 0.135426
endloop
endfacet
facet normal -0.884003 0.467442 0.006017
outer loop
vertex -0.201387 0.127172 -0.052082
vertex -0.203268 0.122935 0.000881
vertex -0.190629 0.147372 -0.040707
endloop
endfacet
facet normal -0.916064 0.013877 -0.400792
outer loop
vertex -0.197596 0.113036 -0.061237
vertex -0.201538 -0.120329 -0.060306
vertex -0.201387 0.127172 -0.052082
endloop
endfacet
facet normal -0.389683 -0.017380 0.920785
outer loop
vertex -0.203268 0.122935 0.000881
vertex -0.202259 -0.121690 -0.003309
vertex 0.121429 -0.029133 0.135426
endloop
endfacet
facet normal -0.365760 0.041658 0.929777
outer loop
vertex 0.121429 -0.029133 0.135426
vertex 0.118973 0.025000 0.132034
vertex -0.203268 0.122935 0.000881
endloop
endfacet
facet normal 0.203851 -0.573287 -0.793591
outer loop
vertex 0.117397 -0.001876 -0.075477
vertex 0.228523 -0.054455 -0.008948
vertex -0.186536 -0.140386 -0.053488
endloop
endfacet
facet normal -0.630055 0.007547 -0.776513
outer loop
vertex -0.197596 0.113036 -0.061237
vertex -0.192835 -0.113153 -0.067299
vertex -0.201538 -0.120329 -0.060306
endloop
endfacet
facet normal 0.223334 0.883323 -0.412144
outer loop
vertex -0.190629 0.147372 -0.040707
vertex 0.016555 0.122870 0.019050
vertex 0.228904 0.056294 -0.008571
endloop
endfacet
facet normal -0.035669 0.026023 -0.999025
outer loop
vertex -0.197596 0.113036 -0.061237
vertex 0.117397 -0.001876 -0.075477
vertex -0.192835 -0.113153 -0.067299
endloop
endfacet
facet normal 0.692164 0.057837 0.719419
outer loop
vertex 0.224715 0.033242 0.106837
vertex 0.193422 0.015768 0.138350
vertex 0.214019 -0.033563 0.122498
endloop
endfacet
facet normal -0.089359 0.524412 -0.846763
outer loop
vertex -0.201387 0.127172 -0.052082
vertex -0.190629 0.147372 -0.040707
vertex -0.197596 0.113036 -0.061237
endloop
endfacet
facet normal 0.252418 -0.919869 0.300211
outer loop
vertex 0.237036 -0.054124 0.040146
vertex 0.214019 -0.033563 0.122498
vertex 0.016531 -0.123419 0.013223
endloop
endfacet
facet normal 0.058583 -0.737810 0.672461
outer loop
vertex 0.187151 -0.017611 0.142342
vertex 0.121429 -0.029133 0.135426
vertex 0.214019 -0.033563 0.122498
endloop
endfacet
facet normal 0.043231 -0.808600 0.586768
outer loop
vertex 0.121429 -0.029133 0.135426
vertex 0.016531 -0.123419 0.013223
vertex 0.214019 -0.033563 0.122498
endloop
endfacet
facet normal 0.049255 0.854522 0.517075
outer loop
vertex -0.190629 0.147372 -0.040707
vertex -0.203268 0.122935 0.000881
vertex 0.118973 0.025000 0.132034
endloop
endfacet
facet normal -0.123299 0.692049 0.711242
outer loop
vertex 0.118973 0.025000 0.132034
vertex 0.016555 0.122870 0.019050
vertex -0.190629 0.147372 -0.040707
endloop
endfacet
facet normal 0.985294 -0.002812 -0.170844
outer loop
vertex 0.228904 0.056294 -0.008571
vertex 0.237036 -0.054124 0.040146
vertex 0.228523 -0.054455 -0.008948
endloop
endfacet
facet normal -0.999354 -0.003506 -0.035760
outer loop
vertex -0.202259 -0.121690 -0.003309
vertex -0.203268 0.122935 0.000881
vertex -0.201387 0.127172 -0.052082
endloop
endfacet
facet normal -0.999920 0.001030 -0.012626
outer loop
vertex -0.201387 0.127172 -0.052082
vertex -0.201538 -0.120329 -0.060306
vertex -0.202259 -0.121690 -0.003309
endloop
endfacet
facet normal -0.968043 -0.250122 -0.018219
outer loop
vertex -0.201538 -0.120329 -0.060306
vertex -0.196287 -0.142108 -0.040330
vertex -0.202259 -0.121690 -0.003309
endloop
endfacet
facet normal 0.905482 -0.046066 0.421877
outer loop
vertex 0.224715 0.033242 0.106837
vertex 0.214019 -0.033563 0.122498
vertex 0.229831 -0.043064 0.087525
endloop
endfacet
facet normal 0.128709 -0.424685 -0.896145
outer loop
vertex -0.192835 -0.113153 -0.067299
vertex 0.117397 -0.001876 -0.075477
vertex -0.186536 -0.140386 -0.053488
endloop
endfacet
facet normal 0.113270 0.816942 0.565487
outer loop
vertex 0.016555 0.122870 0.019050
vertex 0.193422 0.015768 0.138350
vertex 0.224715 0.033242 0.106837
endloop
endfacet
facet normal 0.514059 0.001152 -0.857754
outer loop
vertex 0.117397 -0.001876 -0.075477
vertex 0.228904 0.056294 -0.008571
vertex 0.228523 -0.054455 -0.008948
endloop
endfacet
facet normal 0.987590 0.003459 -0.157015
outer loop
vertex 0.228904 0.056294 -0.008571
vertex 0.237131 0.052613 0.043095
vertex 0.237036 -0.054124 0.040146
endloop
endfacet
facet normal 0.301462 0.953270 0.019911
outer loop
vertex 0.016555 0.122870 0.019050
vertex 0.237131 0.052613 0.043095
vertex 0.228904 0.056294 -0.008571
endloop
endfacet
facet normal 0.588670 -0.013919 0.808254
outer loop
vertex 0.187151 -0.017611 0.142342
vertex 0.214019 -0.033563 0.122498
vertex 0.193422 0.015768 0.138350
endloop
endfacet
facet normal 0.042347 0.773853 0.631948
outer loop
vertex 0.016555 0.122870 0.019050
vertex 0.118973 0.025000 0.132034
vertex 0.193422 0.015768 0.138350
endloop
endfacet
endsolid Exported from Blender-2.71 (sub 0)
